<svg xmlns="http://www.w3.org/2000/svg" width="67.32mm" height="21.8mm" viewBox="0 0 190.83 61.81">
  <g>
    <path d="M.18,17.14h12c4.87,0,8.51,2.14,8.51,6.63,0,3.3-1.69,5.13-4.61,6.11V30c3.48.71,5.28,2.59,5.28,5.77,0,6.26-5.51,7.57-10.19,7.57H.18Zm7,10.35H9.1c2.28,0,4.65-.56,4.65-2.77,0-2.4-2.25-2.62-4.57-2.62h-2Zm0,10.87H9.21c2.55,0,5.21-.37,5.21-3,0-2.85-2.74-3.11-5.13-3.11H7.15Z" style="fill: #1d1d1b"/>
    <path d="M32.41,17.14H41L51,43.31H43.4l-1.95-5.58H31.63l-2.06,5.58H22.48Zm4.27,5.4h-.08L33.24,32.78H39.8Z" style="fill: #1d1d1b"/>
    <path d="M75.24,33.37c0,7.16-4.65,10.38-11.47,10.38S52.3,40.53,52.3,33.37V17.14h7V32.21c0,3.45.94,6.37,4.5,6.37s4.5-2.92,4.5-6.37V17.14h7Z" style="fill: #1d1d1b"/>
    <polygon points="112.59 17.14 119.56 17.14 119.56 38.13 127.37 38.13 127.37 43.31 112.59 43.31 112.59 17.14" style="fill: #1d1d1b"/>
    <rect x="129.94" y="17.14" width="6.97" height="26.16" style="fill: #1d1d1b"/>
    <g>
      <polygon points="140.41 17.14 149.3 17.14 158.14 34.91 158.22 34.91 158.1 17.14 164.48 17.14 164.48 43.31 155.82 43.31 146.67 25.43 146.6 25.43 146.82 43.31 140.41 43.31 140.41 17.14" style="fill: #1d1d1b"/>
      <polygon points="167.28 17.14 174.25 17.14 174.25 27.83 174.33 27.83 182.2 17.14 190.59 17.14 180.93 29.33 191.34 43.31 182.46 43.31 174.33 31.43 174.25 31.43 174.25 43.31 167.28 43.31 167.28 17.14" style="fill: #1d1d1b"/>
    </g>
    <path d="M93.81,5.35a25.38,25.38,0,0,1,17.69,7.18h7.11a30.8,30.8,0,0,0-49.59,0h7.1A25.38,25.38,0,0,1,93.81,5.35m19,42.38a25.37,25.37,0,0,1-38,0H68a30.8,30.8,0,0,0,51.55,0Z" style="fill: #e63329"/>
  </g>
</svg>