<svg version="1" xmlns="http://www.w3.org/2000/svg" width="933.333" height="933.333" viewBox="0 0 700.000000 700.000000"><path d="M331.5.6C295.4 3.3 269.3 8.3 240 18 142.1 50.3 63.1 125 24.7 221.5c-11.6 29.2-19 59.2-22.9 93-1.9 16.6-1.6 57.9.6 75.5 10 81.7 45.9 154.4 104.2 211 51.5 49.9 111.9 80.7 185.4 94.2 11.9 2.2 14.8 2.3 58 2.3 50 0 51.9-.2 82.5-7.5 95.9-22.9 179.2-87.5 226.2-175.6 17.3-32.3 29.4-67.6 36.5-106.4 2.2-11.8 2.3-14.9 2.3-58 0-49.6-.2-51.5-7-80.3-18.5-78.4-64.6-149.2-128.7-198C511.1 33.2 453.3 10 389.5 2.5 376.8 1 341.4-.2 331.5.6zm59.8 159.8c4.4 1.8 9.5 7.3 10.8 11.6.8 2.6-.3 29.4-4.4 108.7-5.2 101.3-5.5 105.3-7.6 108.7-1.2 1.9-3.9 4.5-5.9 5.8-3.7 2.3-4.1 2.3-34.3 2.3h-30.5l-4.1-2.7c-7.8-5.1-7 1.5-13-114.8-4.1-78.8-5.2-105.4-4.4-108 1.2-4.2 6.3-9.7 10.6-11.6 4.4-1.9 78.2-2 82.8 0zm-25.9 263.2c19.5 5 36.1 21.5 42.2 41.9 2.3 8 2.3 23.8 0 32-4.4 15-16.9 30.1-30.7 36.9-23.5 11.6-50 7.4-68.4-10.8-12.5-12.4-17.8-25-17.8-42.6 0-14.3 4-25.9 12.6-36.5 8.2-10.1 18.9-17.4 30.2-20.6 7.9-2.3 23.7-2.4 31.9-.3z"/></svg>